<?xml version="1.0" encoding="utf-8"?>
<svg xmlns="http://www.w3.org/2000/svg" viewBox="0 0 500 500" xmlns:bx="https://boxy-svg.com">
  <defs>
    <bx:export>
      <bx:file format="png" path="logo-04.png"/>
    </bx:export>
  </defs>
  <rect width="500" height="500" style="fill: rgb(255, 255, 255);" rx="50" ry="50"/>
  <g transform="matrix(1, 0, 0, 1, 5.42738, 32.478664)">
    <path d="M 419.573 217.52 C 419.573 314.17 341.223 392.521 244.574 392.521 C 147.924 392.521 69.573 314.17 69.573 217.52 C 69.573 120.871 147.924 42.521 244.574 42.521 C 341.223 42.521 419.573 120.871 419.573 217.52 Z M 244.574 86.27 C 172.086 86.27 113.323 145.034 113.323 217.52 C 113.323 290.008 172.086 348.771 244.574 348.771 C 317.06 348.771 375.824 290.008 375.824 217.52 C 375.824 145.034 317.06 86.27 244.574 86.27 Z" style="fill: rgb(0, 0, 128); stroke-width: 1.515;"/>
    <g transform="matrix(1.515228, 0, 0, 1.515228, -5.427367, 27.521347)" style="transform-origin: 250px 190px;">
      <path d="M 235 50 L 265 50 L 275 100 L 225 100 L 235 50 Z" style="fill: rgb(0, 0, 128);"/>
    </g>
    <g transform="matrix(0, 1.515228, -1.515228, 0, -5.427384, 27.521349)" style="transform-origin: 250px 190px;">
      <path d="M 235 50 L 265 50 L 275 100 L 225 100 L 235 50 Z" style="fill: rgb(0, 0, 128);"/>
    </g>
    <g transform="matrix(-1.515228, 0, 0, -1.515228, -5.42737, 27.521347)" style="transform-origin: 250px 190px;">
      <path d="M 235 50 L 265 50 L 275 100 L 225 100 L 235 50 Z" style="fill: rgb(0, 0, 128);"/>
    </g>
    <g transform="matrix(0, -1.515228, 1.515228, 0, -5.427368, 27.52136)" style="transform-origin: 250px 190px;">
      <path d="M 235 50 L 265 50 L 275 100 L 225 100 L 235 50 Z" style="fill: rgb(0, 0, 128);"/>
    </g>
    <g transform="matrix(1.071428, 1.071428, -1.071428, 1.071428, -5.427375, 27.521379)" style="transform-origin: 250px 190px;">
      <path d="M 235 50 L 265 50 L 275 100 L 225 100 L 235 50 Z" style="fill: rgb(0, 0, 128);"/>
    </g>
    <g transform="matrix(-1.071428, 1.071428, -1.071428, -1.071428, -5.42737, 27.52137)" style="transform-origin: 250px 190px;">
      <path d="M 235 50 L 265 50 L 275 100 L 225 100 L 235 50 Z" style="fill: rgb(0, 0, 128);"/>
    </g>
    <g transform="matrix(-1.071428, -1.071428, 1.071428, -1.071428, -5.427377, 27.52136)" style="transform-origin: 250px 190px;">
      <path d="M 235 50 L 265 50 L 275 100 L 225 100 L 235 50 Z" style="fill: rgb(0, 0, 128);"/>
    </g>
    <g transform="matrix(1.071428, -1.071428, 1.071428, 1.071428, -5.427366, 27.521383)" style="transform-origin: 250px 190px;">
      <path d="M 235 50 L 265 50 L 275 100 L 225 100 L 235 50 Z" style="fill: rgb(0, 0, 128);"/>
    </g>
    <path d="M 244.573 302.521 L 231.885 291.731 C 186.823 253.557 157.073 228.38 157.073 197.48 C 157.073 172.303 178.248 152.521 205.198 152.521 C 220.423 152.521 235.035 159.143 244.573 169.606 C 254.11 159.143 268.723 152.521 283.948 152.521 C 310.898 152.521 332.073 172.303 332.073 197.48 C 332.073 228.38 302.323 253.557 257.26 291.813 L 244.573 302.521 Z" fill="#000080" style="stroke-width: 8.462;"/>
  </g>
</svg>