<?xml version="1.0" encoding="UTF-8" standalone="no"?>
<svg
   viewBox="0 0 500 500"
   width="500"
   height="500"
   version="1.1"
   id="svg115"
   sodipodi:docname="logo-06.svg"
   inkscape:version="1.2.2 (b0a8486541, 2022-12-01)"
   xmlns:inkscape="http://www.inkscape.org/namespaces/inkscape"
   xmlns:sodipodi="http://sodipodi.sourceforge.net/DTD/sodipodi-0.dtd"
   xmlns="http://www.w3.org/2000/svg"
   xmlns:svg="http://www.w3.org/2000/svg">
  <sodipodi:namedview
     id="namedview117"
     pagecolor="#ffffff"
     bordercolor="#000000"
     borderopacity="0.25"
     inkscape:showpageshadow="2"
     inkscape:pageopacity="0.0"
     inkscape:pagecheckerboard="0"
     inkscape:deskcolor="#d1d1d1"
     showgrid="false"
     inkscape:zoom="1.018"
     inkscape:cx="90.86444"
     inkscape:cy="250"
     inkscape:window-width="1366"
     inkscape:window-height="711"
     inkscape:window-x="0"
     inkscape:window-y="0"
     inkscape:window-maximized="1"
     inkscape:current-layer="svg115" />
  <defs
     id="defs94">
    <mask
       id="hole">
      <rect
         width="100%"
         height="100%"
         fill="#fff"
         id="rect89" />
      <circle
         r="70"
         cx="250"
         cy="250"
         fill="#000"
         id="circle91" />
    </mask>
  </defs>
  <g
     id="g305"
     transform="matrix(1.5,0,0,1.5,-125,-125)">
    <circle
       id="donut"
       r="100"
       cx="250"
       cy="250"
       fill="#000080"
       mask="url(#hole)" />
    <path
       d="m 235,110 h 30 l 10,50 h -50 z"
       fill="#000080"
       id="path97" />
    <path
       transform="rotate(45,250,250)"
       d="m 235,110 h 30 l 10,50 h -50 z"
       fill="#000080"
       id="path99" />
    <path
       transform="rotate(90,250,250)"
       d="m 235,110 h 30 l 10,50 h -50 z"
       fill="#000080"
       id="path101" />
    <path
       transform="rotate(135,250,250)"
       d="m 235,110 h 30 l 10,50 h -50 z"
       fill="#000080"
       id="path103" />
    <path
       transform="rotate(180,250,250)"
       d="m 235,110 h 30 l 10,50 h -50 z"
       fill="#000080"
       id="path105" />
    <path
       transform="rotate(-135,250,250)"
       d="m 235,110 h 30 l 10,50 h -50 z"
       fill="#000080"
       id="path107" />
    <path
       transform="rotate(-90,250,250)"
       d="m 235,110 h 30 l 10,50 h -50 z"
       fill="#000080"
       id="path109" />
    <path
       transform="rotate(-45,250,250)"
       d="m 235,110 h 30 l 10,50 h -50 z"
       fill="#000080"
       id="path111" />
    <path
       d="m 244.573,302.521 -12.688,-10.79 c -45.062,-38.174 -74.812,-63.351 -74.812,-94.251 0,-25.177 21.175,-44.959 48.125,-44.959 15.225,0 29.837,6.622 39.375,17.085 9.537,-10.463 24.15,-17.085 39.375,-17.085 26.95,0 48.125,19.782 48.125,44.959 0,30.9 -29.75,56.077 -74.813,94.333 z"
       fill="#000080"
       transform="matrix(0.5,0,0,0.5,127,140)"
       id="path113" />
  </g>
</svg>
