<?xml version="1.0" encoding="UTF-8" standalone="no"?>
<svg
   viewBox="0 0 500 500"
   width="500"
   height="500"
   xmlns="http://www.w3.org/2000/svg">
  <defs>
    <mask id="hole">
      <rect
         width="100%"
         height="100%"
         fill="#ffffff"
         id="rect89"
         x="0"
         y="0" />
      <circle
         r="70"
         cx="250"
         cy="250"
         fill="#000000"
         id="circle91" />
    </mask>
  </defs>

  <rect width="100%" height="100%" x="0" y="0" rx="20" ry="20" fill="#ffffff" />

  <g transform="matrix(1.5,0,0,1.5,-125,-125)">
    <circle
       id="donut"
       r="100"
       cx="250"
       cy="250"
       fill="#000080"
       mask="url(#hole)" />
    <path
       d="m 235,110 h 30 l 10,50 h -50 z"
       fill="#000080"
       id="path97" />
    <path
       transform="rotate(45,250,250)"
       d="m 235,110 h 30 l 10,50 h -50 z"
       fill="#000080"
       id="path99" />
    <path
       transform="rotate(90,250,250)"
       d="m 235,110 h 30 l 10,50 h -50 z"
       fill="#000080"
       id="path101" />
    <path
       transform="rotate(135,250,250)"
       d="m 235,110 h 30 l 10,50 h -50 z"
       fill="#000080"
       id="path103" />
    <path
       transform="rotate(180,250,250)"
       d="m 235,110 h 30 l 10,50 h -50 z"
       fill="#000080"
       id="path105" />
    <path
       transform="rotate(-135,250,250)"
       d="m 235,110 h 30 l 10,50 h -50 z"
       fill="#000080"
       id="path107" />
    <path
       transform="rotate(-90,250,250)"
       d="m 235,110 h 30 l 10,50 h -50 z"
       fill="#000080"
       id="path109" />
    <path
       transform="rotate(-45,250,250)"
       d="m 235,110 h 30 l 10,50 h -50 z"
       fill="#000080"
       id="path111" />
    <path
       d="m 244.573,302.521 -12.688,-10.79 c -45.062,-38.174 -74.812,-63.351 -74.812,-94.251 0,-25.177 21.175,-44.959 48.125,-44.959 15.225,0 29.837,6.622 39.375,17.085 9.537,-10.463 24.15,-17.085 39.375,-17.085 26.95,0 48.125,19.782 48.125,44.959 0,30.9 -29.75,56.077 -74.813,94.333 z"
       fill="#000080"
       transform="matrix(0.5,0,0,0.5,127,140)"
       id="path113" />
  </g>
</svg>
