<?xml version="1.0" encoding="utf-8"?>
<svg xmlns="http://www.w3.org/2000/svg" viewBox="0 0 500 500">
  <g transform="matrix(1, 0, 0, 1, 5.42738, 32.478664)">
    <path d="M 396.095 217.521 C 396.095 301.204 328.256 369.044 244.573 369.044 C 160.89 369.044 93.05 301.204 93.05 217.521 C 93.05 133.838 160.89 65.999 244.573 65.999 C 328.256 65.999 396.095 133.838 396.095 217.521 Z M 244.573 103.879 C 181.81 103.879 130.931 154.759 130.931 217.521 C 130.931 280.284 181.81 331.163 244.573 331.163 C 307.335 331.163 358.215 280.284 358.215 217.521 C 358.215 154.759 307.335 103.879 244.573 103.879 Z" style="fill: rgb(0, 0, 128); stroke-width: 1.515;"/>
    <g transform="matrix(1.515228, 0, 0, 1.515228, -5.427367, 27.521347)" style="transform-origin: 250px 190px;">
      <path d="M 235 50 L 265 50 L 275 100 L 225 100 L 235 50 Z" style="fill: rgb(0, 0, 128);"/>
    </g>
    <g transform="matrix(0, 1.515228, -1.515228, 0, -5.427384, 27.521349)" style="transform-origin: 250px 190px;">
      <path d="M 235 50 L 265 50 L 275 100 L 225 100 L 235 50 Z" style="fill: rgb(0, 0, 128);"/>
    </g>
    <g transform="matrix(-1.515228, 0, 0, -1.515228, -5.42737, 27.521347)" style="transform-origin: 250px 190px;">
      <path d="M 235 50 L 265 50 L 275 100 L 225 100 L 235 50 Z" style="fill: rgb(0, 0, 128);"/>
    </g>
    <g transform="matrix(0, -1.515228, 1.515228, 0, -5.427368, 27.52136)" style="transform-origin: 250px 190px;">
      <path d="M 235 50 L 265 50 L 275 100 L 225 100 L 235 50 Z" style="fill: rgb(0, 0, 128);"/>
    </g>
    <g transform="matrix(1.071428, 1.071428, -1.071428, 1.071428, -5.427375, 27.521379)" style="transform-origin: 250px 190px;">
      <path d="M 235 50 L 265 50 L 275 100 L 225 100 L 235 50 Z" style="fill: rgb(0, 0, 128);"/>
    </g>
    <g transform="matrix(-1.071428, 1.071428, -1.071428, -1.071428, -5.42737, 27.52137)" style="transform-origin: 250px 190px;">
      <path d="M 235 50 L 265 50 L 275 100 L 225 100 L 235 50 Z" style="fill: rgb(0, 0, 128);"/>
    </g>
    <g transform="matrix(-1.071428, -1.071428, 1.071428, -1.071428, -5.427377, 27.52136)" style="transform-origin: 250px 190px;">
      <path d="M 235 50 L 265 50 L 275 100 L 225 100 L 235 50 Z" style="fill: rgb(0, 0, 128);"/>
    </g>
    <g transform="matrix(1.071428, -1.071428, 1.071428, 1.071428, -5.427366, 27.521383)" style="transform-origin: 250px 190px;">
      <path d="M 235 50 L 265 50 L 275 100 L 225 100 L 235 50 Z" style="fill: rgb(0, 0, 128);"/>
    </g>
    <path d="M 244.573 302.521 L 231.885 291.731 C 186.823 253.557 157.073 228.38 157.073 197.48 C 157.073 172.303 178.248 152.521 205.198 152.521 C 220.423 152.521 235.035 159.143 244.573 169.606 C 254.11 159.143 268.723 152.521 283.948 152.521 C 310.898 152.521 332.073 172.303 332.073 197.48 C 332.073 228.38 302.323 253.557 257.26 291.813 L 244.573 302.521 Z" fill="#000080" style="stroke-width: 8.462;"/>
  </g>
</svg>