<svg xmlns="http://www.w3.org/2000/svg" viewBox="0 0 500 500" width="500" height="500"><rect x="0" y="0" width="100%" height="100%" rx="50" ry="50" fill="#fff"/><defs><mask id="hole"><rect width="100%" height="100%" fill="#fff"/><circle r="70" cx="250" cy="250" fill="#000"/></mask></defs><circle id="donut" r="100" cx="250" cy="250" fill="navy" mask="url(#hole)"/><path transform="rotate(0 250 250)" d="M235 110 265 110 275 160 225 160Z" fill="navy"/><path transform="rotate(45 250 250)" d="M235 110 265 110 275 160 225 160Z" fill="navy"/><path transform="rotate(90 250 250)" d="M235 110 265 110 275 160 225 160Z" fill="navy"/><path transform="rotate(135 250 250)" d="M235 110 265 110 275 160 225 160Z" fill="navy"/><path transform="rotate(180 250 250)" d="M235 110 265 110 275 160 225 160Z" fill="navy"/><path transform="rotate(225 250 250)" d="M235 110 265 110 275 160 225 160Z" fill="navy"/><path transform="rotate(270 250 250)" d="M235 110 265 110 275 160 225 160Z" fill="navy"/><path transform="rotate(315 250 250)" d="M235 110 265 110 275 160 225 160Z" fill="navy"/><path d="M244.573 302.521 231.885 291.731C186.823 253.557 157.073 228.38 157.073 197.48 157.073 172.303 178.248 152.521 205.198 152.521 220.423 152.521 235.035 159.143 244.573 169.606 254.11 159.143 268.723 152.521 283.948 152.521 310.898 152.521 332.073 172.303 332.073 197.48 332.073 228.38 302.323 253.557 257.26 291.813L244.573 302.521Z" fill="navy" transform="translate(0) scale(.5)"/></svg>